<svg xmlns="http://www.w3.org/2000/svg" width="720" height="220" viewBox="0 0 720 220">
  <defs>
    <linearGradient id="g" x1="0" y1="0" x2="1" y2="1">
      <stop offset="0" stop-color="#134e4a"/>
      <stop offset="0.55" stop-color="#0f766e"/>
      <stop offset="1" stop-color="#d97706"/>
    </linearGradient>
    <filter id="shadow" x="-20%" y="-20%" width="140%" height="140%">
      <feDropShadow dx="0" dy="10" stdDeviation="12" flood-color="#0f172a" flood-opacity="0.18"/>
    </filter>
  </defs>
  <rect width="720" height="220" rx="36" fill="#f8fafc"/>
  <g transform="translate(42 35)" filter="url(#shadow)">
    <rect x="0" y="0" width="150" height="150" rx="34" fill="url(#g)"/>
    <path d="M42 48h66c10 0 18 8 18 18v42c0 10-8 18-18 18H42c-10 0-18-8-18-18V66c0-10 8-18 18-18z" fill="rgba(255,255,255,0.16)"/>
    <path d="M45 58h60M45 78h60M45 98h36" stroke="#ffffff" stroke-width="9" stroke-linecap="round" opacity="0.95"/>
    <path d="M96 103l17-18 16 14" fill="none" stroke="#fbbf24" stroke-width="8" stroke-linecap="round" stroke-linejoin="round"/>
    <circle cx="129" cy="99" r="5" fill="#fbbf24"/>
  </g>
  <g transform="translate(230 62)">
    <text x="0" y="58" font-family="Tajawal, Segoe UI, Arial, sans-serif" font-size="54" font-weight="800" fill="#0f172a">هوى الشام</text>
    <text x="3" y="103" font-family="Tajawal, Segoe UI, Arial, sans-serif" font-size="25" font-weight="600" fill="#64748b">نظام الحسابات الداخلية</text>
    <rect x="3" y="126" width="250" height="7" rx="4" fill="url(#g)" opacity="0.95"/>
  </g>
</svg>
